<svg xmlns="http://www.w3.org/2000/svg" version="1.1" xmlns:xlink="http://www.w3.org/1999/xlink" xmlns:svgjs="http://svgjs.dev/svgjs" width="1440" height="560" preserveAspectRatio="none" viewBox="0 0 1440 560"><g mask="url(&quot;#SvgjsMask1012&quot;)" fill="none"><rect width="1440" height="560" x="0" y="0" fill="rgba(125, 136, 136, 1)" style="--darkreader-inline-fill: var(--darkreader-background-7d8888, #5e666a);" data-darkreader-inline-fill=""></rect><path d="M 0,123 C 57.6,143.2 172.8,241.4 288,224 C 403.2,206.6 460.8,47 576,36 C 691.2,25 748.8,149.8 864,169 C 979.2,188.2 1036.8,131.6 1152,132 C 1267.2,132.4 1382.4,163.2 1440,171L1440 560L0 560z" fill="rgba(52, 55, 57, 1)" style="--darkreader-inline-fill: var(--darkreader-background-343739, #292c2e);" data-darkreader-inline-fill=""></path><path d="M 0,297 C 144,347.4 432,544 720,549 C 1008,554 1296,367.4 1440,322L1440 560L0 560z" fill="rgba(24, 22, 22, 1)" style="--darkreader-inline-fill: var(--darkreader-background-181616, #111313);" data-darkreader-inline-fill=""></path></g><defs><mask id="SvgjsMask1012"><rect width="1440" height="560" fill="#ffffff" style="--darkreader-inline-fill: var(--darkreader-text-ffffff, #e8e6e3);" data-darkreader-inline-fill=""></rect></mask></defs></svg>